<svg xmlns="http://www.w3.org/2000/svg" xmlns:xlink="http://www.w3.org/1999/xlink" width="500" zoomAndPan="magnify" viewBox="0 0 375 187.499995" height="250" preserveAspectRatio="xMidYMid meet" version="1.0"><defs><clipPath id="716befa0e6"><path d="M 117.1875 49.117188 L 184.007812 49.117188 L 184.007812 113 L 117.1875 113 Z M 117.1875 49.117188 " clip-rule="nonzero"/></clipPath><clipPath id="7b4620cffd"><path d="M 100.125 69.386719 L 211.609375 23.835938 L 237.351562 86.851562 L 125.867188 132.398438 Z M 100.125 69.386719 " clip-rule="nonzero"/></clipPath><clipPath id="cd3a6d82ed"><path d="M 100.125 69.386719 L 211.609375 23.835938 L 237.351562 86.851562 L 125.867188 132.398438 Z M 100.125 69.386719 " clip-rule="nonzero"/></clipPath><clipPath id="7652a0954b"><path d="M 154.089844 43.136719 L 219.914062 43.136719 L 219.914062 106.964844 L 154.089844 106.964844 Z M 154.089844 43.136719 " clip-rule="nonzero"/></clipPath><clipPath id="8eda33dba2"><path d="M 100.125 69.386719 L 211.609375 23.835938 L 237.351562 86.851562 L 125.867188 132.398438 Z M 100.125 69.386719 " clip-rule="nonzero"/></clipPath><clipPath id="5a48bcabf0"><path d="M 100.125 69.386719 L 211.609375 23.835938 L 237.351562 86.851562 L 125.867188 132.398438 Z M 100.125 69.386719 " clip-rule="nonzero"/></clipPath></defs><g clip-path="url(#716befa0e6)"><g clip-path="url(#7b4620cffd)"><g clip-path="url(#cd3a6d82ed)"><path fill="#ad8330" d="M 176.964844 76.730469 L 184.007812 59.953125 L 163.023438 51.140625 C 154.050781 47.375 143.722656 51.59375 139.957031 60.566406 L 117.941406 112.996094 L 141.949219 103.390625 L 156.714844 68.21875 Z M 176.964844 76.730469 " fill-opacity="1" fill-rule="nonzero"/></g></g></g><g clip-path="url(#7652a0954b)"><g clip-path="url(#8eda33dba2)"><g clip-path="url(#5a48bcabf0)"><path fill="#ad8330" d="M 195.917969 52.683594 L 181.332031 87.417969 L 161.28125 79 L 154.242188 95.773438 L 176.070312 104.9375 C 184.238281 108.371094 193.644531 104.527344 197.074219 96.355469 L 219.351562 43.304688 Z M 195.917969 52.683594 " fill-opacity="1" fill-rule="nonzero"/></g></g></g><path fill="#152039" d="M 28.464844 44.003906 L 43.515625 44.003906 L 43.515625 109.035156 L 28.464844 109.035156 Z M 28.464844 44.003906 " fill-opacity="1" fill-rule="nonzero"/><path fill="#152039" d="M 87.371094 56.082031 L 87.371094 73.269531 L 117.460938 73.269531 L 117.460938 85.347656 L 87.371094 85.347656 L 87.371094 109.035156 L 72.316406 109.035156 L 72.316406 44.003906 L 121.464844 44.003906 L 121.464844 56.082031 Z M 87.371094 56.082031 " fill-opacity="1" fill-rule="nonzero"/><path fill="#152039" d="M 224.421875 44.003906 L 239.476562 44.003906 L 239.476562 96.769531 L 272.078125 96.769531 L 272.078125 109.035156 L 224.421875 109.035156 Z M 224.421875 44.003906 " fill-opacity="1" fill-rule="nonzero"/><path fill="#152039" d="M 322.058594 44.003906 C 327.824219 44.003906 332.828125 44.96875 337.066406 46.886719 C 341.3125 48.800781 344.582031 51.523438 346.867188 55.054688 C 349.164062 58.585938 350.3125 62.769531 350.3125 67.597656 C 350.3125 72.367188 349.164062 76.535156 346.867188 80.097656 C 344.582031 83.660156 341.3125 86.386719 337.066406 88.277344 C 332.828125 90.160156 327.824219 91.097656 322.058594 91.097656 L 308.96875 91.097656 L 308.96875 109.035156 L 293.914062 109.035156 L 293.914062 44.003906 Z M 321.234375 78.835938 C 325.753906 78.835938 329.183594 77.863281 331.535156 75.921875 C 333.890625 73.96875 335.070312 71.195312 335.070312 67.597656 C 335.070312 63.945312 333.890625 61.144531 331.535156 59.199219 C 329.183594 57.246094 325.753906 56.269531 321.234375 56.269531 L 308.96875 56.269531 L 308.96875 78.835938 Z M 321.234375 78.835938 " fill-opacity="1" fill-rule="nonzero"/><path fill="#152039" d="M 67.707031 123.703125 L 68.703125 123.703125 L 68.703125 130.683594 L 67.707031 130.683594 Z M 67.707031 123.703125 " fill-opacity="1" fill-rule="nonzero"/><path fill="#152039" d="M 79.441406 123.703125 L 79.441406 130.683594 L 78.628906 130.683594 L 74.4375 125.480469 L 74.4375 130.683594 L 73.441406 130.683594 L 73.441406 123.703125 L 74.265625 123.703125 L 78.441406 128.910156 L 78.441406 123.703125 Z M 79.441406 123.703125 " fill-opacity="1" fill-rule="nonzero"/><path fill="#152039" d="M 85.5625 124.578125 L 83.179688 124.578125 L 83.179688 123.703125 L 88.945312 123.703125 L 88.945312 124.578125 L 86.5625 124.578125 L 86.5625 130.683594 L 85.5625 130.683594 Z M 85.5625 124.578125 " fill-opacity="1" fill-rule="nonzero"/><path fill="#152039" d="M 97.738281 129.8125 L 97.738281 130.683594 L 92.671875 130.683594 L 92.671875 123.703125 L 97.597656 123.703125 L 97.597656 124.578125 L 93.671875 124.578125 L 93.671875 126.710938 L 97.175781 126.710938 L 97.175781 127.570312 L 93.671875 127.570312 L 93.671875 129.8125 Z M 97.738281 129.8125 " fill-opacity="1" fill-rule="nonzero"/><path fill="#152039" d="M 106.671875 130.683594 L 105.160156 128.535156 C 104.972656 128.558594 104.824219 128.566406 104.722656 128.566406 L 102.992188 128.566406 L 102.992188 130.683594 L 101.996094 130.683594 L 101.996094 123.703125 L 104.722656 123.703125 C 105.625 123.703125 106.335938 123.921875 106.855469 124.359375 C 107.375 124.789062 107.636719 125.378906 107.636719 126.136719 C 107.636719 126.675781 107.5 127.140625 107.230469 127.523438 C 106.96875 127.894531 106.59375 128.171875 106.09375 128.347656 L 107.746094 130.683594 Z M 104.691406 127.710938 C 105.320312 127.710938 105.804688 127.578125 106.140625 127.304688 C 106.472656 127.035156 106.640625 126.644531 106.640625 126.136719 C 106.640625 125.636719 106.472656 125.253906 106.140625 124.980469 C 105.804688 124.714844 105.320312 124.578125 104.691406 124.578125 L 102.992188 124.578125 L 102.992188 127.710938 Z M 104.691406 127.710938 " fill-opacity="1" fill-rule="nonzero"/><path fill="#152039" d="M 117.886719 123.703125 L 117.886719 130.683594 L 117.074219 130.683594 L 112.882812 125.480469 L 112.882812 130.683594 L 111.886719 130.683594 L 111.886719 123.703125 L 112.710938 123.703125 L 116.886719 128.910156 L 116.886719 123.703125 Z M 117.886719 123.703125 " fill-opacity="1" fill-rule="nonzero"/><path fill="#152039" d="M 127.082031 128.941406 L 123.371094 128.941406 L 122.59375 130.683594 L 121.5625 130.683594 L 124.726562 123.703125 L 125.726562 123.703125 L 128.886719 130.683594 L 127.84375 130.683594 Z M 126.722656 128.144531 L 125.226562 124.71875 L 123.714844 128.144531 Z M 126.722656 128.144531 " fill-opacity="1" fill-rule="nonzero"/><path fill="#152039" d="M 133.953125 124.578125 L 131.566406 124.578125 L 131.566406 123.703125 L 137.332031 123.703125 L 137.332031 124.578125 L 134.949219 124.578125 L 134.949219 130.683594 L 133.953125 130.683594 Z M 133.953125 124.578125 " fill-opacity="1" fill-rule="nonzero"/><path fill="#152039" d="M 141.0625 123.703125 L 142.058594 123.703125 L 142.058594 130.683594 L 141.0625 130.683594 Z M 141.0625 123.703125 " fill-opacity="1" fill-rule="nonzero"/><path fill="#152039" d="M 149.941406 130.761719 C 149.242188 130.761719 148.609375 130.617188 148.039062 130.3125 C 147.480469 130 147.035156 129.574219 146.714844 129.035156 C 146.390625 128.484375 146.230469 127.871094 146.230469 127.195312 C 146.230469 126.519531 146.390625 125.914062 146.714844 125.371094 C 147.035156 124.820312 147.480469 124.398438 148.039062 124.09375 C 148.609375 123.78125 149.242188 123.625 149.941406 123.625 C 150.644531 123.625 151.28125 123.78125 151.84375 124.09375 C 152.402344 124.398438 152.84375 124.820312 153.167969 125.371094 C 153.488281 125.914062 153.648438 126.519531 153.648438 127.195312 C 153.648438 127.871094 153.488281 128.484375 153.167969 129.035156 C 152.84375 129.574219 152.402344 130 151.84375 130.3125 C 151.28125 130.617188 150.644531 130.761719 149.941406 130.761719 Z M 149.941406 129.875 C 150.460938 129.875 150.921875 129.761719 151.328125 129.53125 C 151.734375 129.292969 152.054688 128.972656 152.292969 128.566406 C 152.53125 128.160156 152.652344 127.707031 152.652344 127.195312 C 152.652344 126.6875 152.53125 126.230469 152.292969 125.824219 C 152.054688 125.417969 151.734375 125.101562 151.328125 124.871094 C 150.921875 124.636719 150.460938 124.515625 149.941406 124.515625 C 149.429688 124.515625 148.96875 124.636719 148.554688 124.871094 C 148.136719 125.101562 147.808594 125.417969 147.574219 125.824219 C 147.34375 126.230469 147.230469 126.6875 147.230469 127.195312 C 147.230469 127.707031 147.34375 128.160156 147.574219 128.566406 C 147.808594 128.972656 148.136719 129.292969 148.554688 129.53125 C 148.96875 129.761719 149.429688 129.875 149.941406 129.875 Z M 149.941406 129.875 " fill-opacity="1" fill-rule="nonzero"/><path fill="#152039" d="M 163.8125 123.703125 L 163.8125 130.683594 L 163 130.683594 L 158.808594 125.480469 L 158.808594 130.683594 L 157.8125 130.683594 L 157.8125 123.703125 L 158.636719 123.703125 L 162.8125 128.910156 L 162.8125 123.703125 Z M 163.8125 123.703125 " fill-opacity="1" fill-rule="nonzero"/><path fill="#152039" d="M 173.003906 128.941406 L 169.296875 128.941406 L 168.515625 130.683594 L 167.488281 130.683594 L 170.652344 123.703125 L 171.648438 123.703125 L 174.8125 130.683594 L 173.769531 130.683594 Z M 172.648438 128.144531 L 171.152344 124.71875 L 169.640625 128.144531 Z M 172.648438 128.144531 " fill-opacity="1" fill-rule="nonzero"/><path fill="#152039" d="M 178.488281 123.703125 L 179.484375 123.703125 L 179.484375 129.8125 L 183.273438 129.8125 L 183.273438 130.683594 L 178.488281 130.683594 Z M 178.488281 123.703125 " fill-opacity="1" fill-rule="nonzero"/><path fill="#152039" d="M 193.375 124.578125 L 193.375 127.007812 L 196.882812 127.007812 L 196.882812 127.863281 L 193.375 127.863281 L 193.375 130.683594 L 192.378906 130.683594 L 192.378906 123.703125 L 197.304688 123.703125 L 197.304688 124.578125 Z M 193.375 124.578125 " fill-opacity="1" fill-rule="nonzero"/><path fill="#152039" d="M 206.417969 129.8125 L 206.417969 130.683594 L 201.351562 130.683594 L 201.351562 123.703125 L 206.277344 123.703125 L 206.277344 124.578125 L 202.347656 124.578125 L 202.347656 126.710938 L 205.855469 126.710938 L 205.855469 127.570312 L 202.347656 127.570312 L 202.347656 129.8125 Z M 206.417969 129.8125 " fill-opacity="1" fill-rule="nonzero"/><path fill="#152039" d="M 210.675781 123.703125 L 213.621094 123.703125 C 214.355469 123.703125 215.011719 123.851562 215.582031 124.140625 C 216.152344 124.433594 216.597656 124.839844 216.910156 125.371094 C 217.226562 125.902344 217.390625 126.507812 217.390625 127.195312 C 217.390625 127.878906 217.226562 128.488281 216.910156 129.019531 C 216.597656 129.546875 216.152344 129.960938 215.582031 130.25 C 215.011719 130.542969 214.355469 130.683594 213.621094 130.683594 L 210.675781 130.683594 Z M 213.558594 129.8125 C 214.125 129.8125 214.625 129.703125 215.054688 129.484375 C 215.480469 129.265625 215.804688 128.964844 216.035156 128.566406 C 216.273438 128.171875 216.394531 127.71875 216.394531 127.195312 C 216.394531 126.675781 216.273438 126.222656 216.035156 125.824219 C 215.804688 125.429688 215.480469 125.121094 215.054688 124.902344 C 214.625 124.6875 214.125 124.578125 213.558594 124.578125 L 211.671875 124.578125 L 211.671875 129.8125 Z M 213.558594 129.8125 " fill-opacity="1" fill-rule="nonzero"/><path fill="#152039" d="M 226.617188 129.8125 L 226.617188 130.683594 L 221.554688 130.683594 L 221.554688 123.703125 L 226.476562 123.703125 L 226.476562 124.578125 L 222.550781 124.578125 L 222.550781 126.710938 L 226.058594 126.710938 L 226.058594 127.570312 L 222.550781 127.570312 L 222.550781 129.8125 Z M 226.617188 129.8125 " fill-opacity="1" fill-rule="nonzero"/><path fill="#152039" d="M 235.550781 130.683594 L 234.039062 128.535156 C 233.851562 128.558594 233.703125 128.566406 233.601562 128.566406 L 231.871094 128.566406 L 231.871094 130.683594 L 230.875 130.683594 L 230.875 123.703125 L 233.601562 123.703125 C 234.507812 123.703125 235.214844 123.921875 235.738281 124.359375 C 236.253906 124.789062 236.515625 125.378906 236.515625 126.136719 C 236.515625 126.675781 236.378906 127.140625 236.109375 127.523438 C 235.851562 127.894531 235.472656 128.171875 234.972656 128.347656 L 236.625 130.683594 Z M 233.570312 127.710938 C 234.203125 127.710938 234.683594 127.578125 235.019531 127.304688 C 235.351562 127.035156 235.519531 126.644531 235.519531 126.136719 C 235.519531 125.636719 235.351562 125.253906 235.019531 124.980469 C 234.683594 124.714844 234.203125 124.578125 233.570312 124.578125 L 231.871094 124.578125 L 231.871094 127.710938 Z M 233.570312 127.710938 " fill-opacity="1" fill-rule="nonzero"/><path fill="#152039" d="M 245.222656 128.941406 L 241.515625 128.941406 L 240.734375 130.683594 L 239.707031 130.683594 L 242.871094 123.703125 L 243.867188 123.703125 L 247.03125 130.683594 L 245.984375 130.683594 Z M 244.863281 128.144531 L 243.367188 124.71875 L 241.855469 128.144531 Z M 244.863281 128.144531 " fill-opacity="1" fill-rule="nonzero"/><path fill="#152039" d="M 252.09375 124.578125 L 249.707031 124.578125 L 249.707031 123.703125 L 255.476562 123.703125 L 255.476562 124.578125 L 253.089844 124.578125 L 253.089844 130.683594 L 252.09375 130.683594 Z M 252.09375 124.578125 " fill-opacity="1" fill-rule="nonzero"/><path fill="#152039" d="M 259.203125 123.703125 L 260.199219 123.703125 L 260.199219 130.683594 L 259.203125 130.683594 Z M 259.203125 123.703125 " fill-opacity="1" fill-rule="nonzero"/><path fill="#152039" d="M 268.082031 130.761719 C 267.386719 130.761719 266.75 130.617188 266.183594 130.3125 C 265.621094 130 265.175781 129.574219 264.859375 129.035156 C 264.535156 128.484375 264.375 127.871094 264.375 127.195312 C 264.375 126.519531 264.535156 125.914062 264.859375 125.371094 C 265.175781 124.820312 265.621094 124.398438 266.183594 124.09375 C 266.75 123.78125 267.386719 123.625 268.082031 123.625 C 268.789062 123.625 269.421875 123.78125 269.984375 124.09375 C 270.546875 124.398438 270.984375 124.820312 271.308594 125.371094 C 271.628906 125.914062 271.792969 126.519531 271.792969 127.195312 C 271.792969 127.871094 271.628906 128.484375 271.308594 129.035156 C 270.984375 129.574219 270.546875 130 269.984375 130.3125 C 269.421875 130.617188 268.789062 130.761719 268.082031 130.761719 Z M 268.082031 129.875 C 268.601562 129.875 269.066406 129.761719 269.46875 129.53125 C 269.875 129.292969 270.195312 128.972656 270.4375 128.566406 C 270.675781 128.160156 270.792969 127.707031 270.792969 127.195312 C 270.792969 126.6875 270.675781 126.230469 270.4375 125.824219 C 270.195312 125.417969 269.875 125.101562 269.46875 124.871094 C 269.066406 124.636719 268.601562 124.515625 268.082031 124.515625 C 267.574219 124.515625 267.109375 124.636719 266.695312 124.871094 C 266.28125 125.101562 265.953125 125.417969 265.714844 125.824219 C 265.484375 126.230469 265.371094 126.6875 265.371094 127.195312 C 265.371094 127.707031 265.484375 128.160156 265.714844 128.566406 C 265.953125 128.972656 266.28125 129.292969 266.695312 129.53125 C 267.109375 129.761719 267.574219 129.875 268.082031 129.875 Z M 268.082031 129.875 " fill-opacity="1" fill-rule="nonzero"/><path fill="#152039" d="M 281.953125 123.703125 L 281.953125 130.683594 L 281.140625 130.683594 L 276.949219 125.480469 L 276.949219 130.683594 L 275.953125 130.683594 L 275.953125 123.703125 L 276.777344 123.703125 L 280.953125 128.910156 L 280.953125 123.703125 Z M 281.953125 123.703125 " fill-opacity="1" fill-rule="nonzero"/><path fill="#152039" d="M 295.164062 130.761719 C 294.464844 130.761719 293.832031 130.617188 293.261719 130.3125 C 292.699219 130 292.257812 129.574219 291.9375 129.035156 C 291.613281 128.484375 291.453125 127.871094 291.453125 127.195312 C 291.453125 126.519531 291.613281 125.914062 291.9375 125.371094 C 292.257812 124.820312 292.699219 124.398438 293.261719 124.09375 C 293.832031 123.78125 294.464844 123.625 295.164062 123.625 C 295.867188 123.625 296.503906 123.78125 297.0625 124.09375 C 297.625 124.398438 298.066406 124.820312 298.390625 125.371094 C 298.707031 125.914062 298.871094 126.519531 298.871094 127.195312 C 298.871094 127.871094 298.707031 128.484375 298.390625 129.035156 C 298.066406 129.574219 297.625 130 297.0625 130.3125 C 296.503906 130.617188 295.867188 130.761719 295.164062 130.761719 Z M 295.164062 129.875 C 295.679688 129.875 296.144531 129.761719 296.550781 129.53125 C 296.957031 129.292969 297.273438 128.972656 297.515625 128.566406 C 297.753906 128.160156 297.875 127.707031 297.875 127.195312 C 297.875 126.6875 297.753906 126.230469 297.515625 125.824219 C 297.273438 125.417969 296.957031 125.101562 296.550781 124.871094 C 296.144531 124.636719 295.679688 124.515625 295.164062 124.515625 C 294.652344 124.515625 294.1875 124.636719 293.777344 124.871094 C 293.359375 125.101562 293.03125 125.417969 292.792969 125.824219 C 292.566406 126.230469 292.453125 126.6875 292.453125 127.195312 C 292.453125 127.707031 292.566406 128.160156 292.792969 128.566406 C 293.03125 128.972656 293.359375 129.292969 293.777344 129.53125 C 294.1875 129.761719 294.652344 129.875 295.164062 129.875 Z M 295.164062 129.875 " fill-opacity="1" fill-rule="nonzero"/><path fill="#152039" d="M 304.03125 124.578125 L 304.03125 127.007812 L 307.535156 127.007812 L 307.535156 127.863281 L 304.03125 127.863281 L 304.03125 130.683594 L 303.03125 130.683594 L 303.03125 123.703125 L 307.957031 123.703125 L 307.957031 124.578125 Z M 304.03125 124.578125 " fill-opacity="1" fill-rule="nonzero"/><path fill="#152039" d="M 81.703125 137.617188 L 81.703125 144.597656 L 80.894531 144.597656 L 76.703125 139.394531 L 76.703125 144.597656 L 75.703125 144.597656 L 75.703125 137.617188 L 76.53125 137.617188 L 80.707031 142.820312 L 80.707031 137.617188 Z M 81.703125 137.617188 " fill-opacity="1" fill-rule="nonzero"/><path fill="#152039" d="M 90.359375 143.726562 L 90.359375 144.597656 L 85.296875 144.597656 L 85.296875 137.617188 L 90.21875 137.617188 L 90.21875 138.488281 L 86.292969 138.488281 L 86.292969 140.625 L 89.800781 140.625 L 89.800781 141.480469 L 86.292969 141.480469 L 86.292969 143.726562 Z M 90.359375 143.726562 " fill-opacity="1" fill-rule="nonzero"/><path fill="#152039" d="M 96.367188 144.675781 C 95.433594 144.675781 94.707031 144.410156 94.1875 143.882812 C 93.664062 143.351562 93.410156 142.589844 93.410156 141.589844 L 93.410156 137.617188 L 94.40625 137.617188 L 94.40625 141.542969 C 94.40625 143.039062 95.058594 143.789062 96.367188 143.789062 C 97.011719 143.789062 97.5 143.609375 97.832031 143.242188 C 98.175781 142.867188 98.347656 142.304688 98.347656 141.542969 L 98.347656 137.617188 L 99.3125 137.617188 L 99.3125 141.589844 C 99.3125 142.589844 99.054688 143.351562 98.535156 143.882812 C 98.011719 144.410156 97.292969 144.675781 96.367188 144.675781 Z M 96.367188 144.675781 " fill-opacity="1" fill-rule="nonzero"/><path fill="#152039" d="M 107.527344 144.597656 L 106.015625 142.449219 C 105.828125 142.472656 105.679688 142.480469 105.578125 142.480469 L 103.851562 142.480469 L 103.851562 144.597656 L 102.851562 144.597656 L 102.851562 137.617188 L 105.578125 137.617188 C 106.484375 137.617188 107.191406 137.835938 107.714844 138.273438 C 108.234375 138.699219 108.492188 139.292969 108.492188 140.046875 C 108.492188 140.589844 108.359375 141.054688 108.089844 141.433594 C 107.828125 141.808594 107.449219 142.085938 106.949219 142.261719 L 108.601562 144.597656 Z M 105.546875 141.621094 C 106.179688 141.621094 106.664062 141.488281 106.996094 141.214844 C 107.328125 140.949219 107.496094 140.558594 107.496094 140.046875 C 107.496094 139.550781 107.328125 139.167969 106.996094 138.894531 C 106.664062 138.625 106.179688 138.488281 105.546875 138.488281 L 103.851562 138.488281 L 103.851562 141.621094 Z M 105.546875 141.621094 " fill-opacity="1" fill-rule="nonzero"/><path fill="#152039" d="M 114.742188 144.675781 C 114.046875 144.675781 113.410156 144.527344 112.84375 144.222656 C 112.28125 143.914062 111.835938 143.488281 111.519531 142.945312 C 111.195312 142.398438 111.035156 141.785156 111.035156 141.109375 C 111.035156 140.433594 111.195312 139.824219 111.519531 139.285156 C 111.835938 138.734375 112.28125 138.308594 112.84375 138.007812 C 113.410156 137.695312 114.046875 137.539062 114.742188 137.539062 C 115.449219 137.539062 116.085938 137.695312 116.644531 138.007812 C 117.207031 138.308594 117.648438 138.734375 117.96875 139.285156 C 118.289062 139.824219 118.453125 140.433594 118.453125 141.109375 C 118.453125 141.785156 118.289062 142.398438 117.96875 142.945312 C 117.648438 143.488281 117.207031 143.914062 116.644531 144.222656 C 116.085938 144.527344 115.449219 144.675781 114.742188 144.675781 Z M 114.742188 143.789062 C 115.261719 143.789062 115.726562 143.675781 116.132812 143.445312 C 116.535156 143.207031 116.855469 142.882812 117.097656 142.480469 C 117.335938 142.074219 117.457031 141.617188 117.457031 141.109375 C 117.457031 140.601562 117.335938 140.140625 117.097656 139.738281 C 116.855469 139.332031 116.535156 139.015625 116.132812 138.785156 C 115.726562 138.546875 115.261719 138.425781 114.742188 138.425781 C 114.234375 138.425781 113.769531 138.546875 113.355469 138.785156 C 112.941406 139.015625 112.613281 139.332031 112.375 139.738281 C 112.144531 140.140625 112.03125 140.601562 112.03125 141.109375 C 112.03125 141.617188 112.144531 142.074219 112.375 142.480469 C 112.613281 142.882812 112.941406 143.207031 113.355469 143.445312 C 113.769531 143.675781 114.234375 143.789062 114.742188 143.789062 Z M 114.742188 143.789062 " fill-opacity="1" fill-rule="nonzero"/><path fill="#152039" d="M 125.644531 137.617188 L 126.640625 137.617188 L 126.640625 143.726562 L 130.429688 143.726562 L 130.429688 144.597656 L 125.644531 144.597656 Z M 125.644531 137.617188 " fill-opacity="1" fill-rule="nonzero"/><path fill="#152039" d="M 133.0625 137.617188 L 134.058594 137.617188 L 134.058594 144.597656 L 133.0625 144.597656 Z M 133.0625 137.617188 " fill-opacity="1" fill-rule="nonzero"/><path fill="#152039" d="M 143.648438 137.617188 L 143.648438 144.597656 L 142.839844 144.597656 L 138.648438 139.394531 L 138.648438 144.597656 L 137.648438 144.597656 L 137.648438 137.617188 L 138.476562 137.617188 L 142.652344 142.820312 L 142.652344 137.617188 Z M 143.648438 137.617188 " fill-opacity="1" fill-rule="nonzero"/><path fill="#152039" d="M 152.085938 141.0625 L 153.039062 141.0625 L 153.039062 143.789062 C 152.695312 144.082031 152.289062 144.300781 151.820312 144.457031 C 151.363281 144.601562 150.886719 144.675781 150.386719 144.675781 C 149.691406 144.675781 149.054688 144.527344 148.488281 144.222656 C 147.925781 143.914062 147.480469 143.488281 147.164062 142.945312 C 146.839844 142.398438 146.679688 141.785156 146.679688 141.109375 C 146.679688 140.433594 146.839844 139.824219 147.164062 139.285156 C 147.480469 138.734375 147.925781 138.308594 148.488281 138.007812 C 149.054688 137.695312 149.703125 137.539062 150.417969 137.539062 C 150.96875 137.539062 151.472656 137.632812 151.929688 137.820312 C 152.386719 138 152.777344 138.265625 153.097656 138.613281 L 152.476562 139.238281 C 151.914062 138.699219 151.238281 138.425781 150.449219 138.425781 C 149.921875 138.425781 149.441406 138.542969 149.015625 138.769531 C 148.601562 139 148.273438 139.324219 148.035156 139.738281 C 147.792969 140.140625 147.675781 140.601562 147.675781 141.109375 C 147.675781 141.617188 147.792969 142.074219 148.035156 142.480469 C 148.273438 142.882812 148.601562 143.207031 149.015625 143.445312 C 149.441406 143.675781 149.921875 143.789062 150.449219 143.789062 C 151.074219 143.789062 151.621094 143.640625 152.085938 143.335938 Z M 152.085938 141.0625 " fill-opacity="1" fill-rule="nonzero"/><path fill="#152039" d="M 159.332031 144.675781 C 158.394531 144.675781 157.667969 144.410156 157.148438 143.882812 C 156.628906 143.351562 156.371094 142.589844 156.371094 141.589844 L 156.371094 137.617188 L 157.367188 137.617188 L 157.367188 141.542969 C 157.367188 143.039062 158.023438 143.789062 159.332031 143.789062 C 159.972656 143.789062 160.460938 143.609375 160.796875 143.242188 C 161.140625 142.867188 161.308594 142.304688 161.308594 141.542969 L 161.308594 137.617188 L 162.277344 137.617188 L 162.277344 141.589844 C 162.277344 142.589844 162.015625 143.351562 161.496094 143.882812 C 160.976562 144.410156 160.253906 144.675781 159.332031 144.675781 Z M 159.332031 144.675781 " fill-opacity="1" fill-rule="nonzero"/><path fill="#152039" d="M 165.816406 137.617188 L 166.8125 137.617188 L 166.8125 144.597656 L 165.816406 144.597656 Z M 165.816406 137.617188 " fill-opacity="1" fill-rule="nonzero"/><path fill="#152039" d="M 172.441406 144.675781 C 171.914062 144.675781 171.402344 144.597656 170.914062 144.441406 C 170.425781 144.277344 170.042969 144.066406 169.761719 143.804688 L 170.136719 143.023438 C 170.40625 143.265625 170.75 143.460938 171.164062 143.617188 C 171.578125 143.765625 172.007812 143.835938 172.441406 143.835938 C 173.011719 143.835938 173.441406 143.738281 173.722656 143.539062 C 174.007812 143.34375 174.15625 143.082031 174.15625 142.757812 C 174.15625 142.523438 174.078125 142.332031 173.921875 142.183594 C 173.765625 142.027344 173.574219 141.910156 173.347656 141.824219 C 173.117188 141.742188 172.792969 141.652344 172.378906 141.558594 C 171.851562 141.433594 171.421875 141.308594 171.101562 141.1875 C 170.78125 141.054688 170.503906 140.855469 170.277344 140.59375 C 170.046875 140.335938 169.933594 139.980469 169.933594 139.535156 C 169.933594 139.160156 170.03125 138.824219 170.230469 138.519531 C 170.425781 138.222656 170.722656 137.984375 171.117188 137.804688 C 171.523438 137.628906 172.023438 137.539062 172.613281 137.539062 C 173.019531 137.539062 173.417969 137.59375 173.8125 137.695312 C 174.21875 137.800781 174.566406 137.957031 174.859375 138.164062 L 174.53125 138.957031 C 174.226562 138.769531 173.910156 138.628906 173.582031 138.535156 C 173.246094 138.433594 172.925781 138.378906 172.613281 138.378906 C 172.042969 138.378906 171.617188 138.484375 171.335938 138.691406 C 171.054688 138.902344 170.914062 139.167969 170.914062 139.488281 C 170.914062 139.730469 170.992188 139.921875 171.148438 140.078125 C 171.3125 140.226562 171.511719 140.339844 171.742188 140.421875 C 171.980469 140.507812 172.300781 140.59375 172.707031 140.6875 C 173.238281 140.8125 173.660156 140.945312 173.96875 141.078125 C 174.289062 141.203125 174.566406 141.394531 174.796875 141.652344 C 175.023438 141.914062 175.140625 142.261719 175.140625 142.695312 C 175.140625 143.0625 175.039062 143.394531 174.84375 143.695312 C 174.644531 144 174.34375 144.234375 173.9375 144.410156 C 173.535156 144.589844 173.035156 144.675781 172.441406 144.675781 Z M 172.441406 144.675781 " fill-opacity="1" fill-rule="nonzero"/><path fill="#152039" d="M 179.476562 138.488281 L 177.089844 138.488281 L 177.089844 137.617188 L 182.855469 137.617188 L 182.855469 138.488281 L 180.472656 138.488281 L 180.472656 144.597656 L 179.476562 144.597656 Z M 179.476562 138.488281 " fill-opacity="1" fill-rule="nonzero"/><path fill="#152039" d="M 185.4375 137.617188 L 186.433594 137.617188 L 186.433594 144.597656 L 185.4375 144.597656 Z M 185.4375 137.617188 " fill-opacity="1" fill-rule="nonzero"/><path fill="#152039" d="M 193.15625 144.675781 C 192.445312 144.675781 191.816406 144.527344 191.253906 144.222656 C 190.691406 143.914062 190.25 143.488281 189.929688 142.945312 C 189.617188 142.398438 189.460938 141.785156 189.460938 141.109375 C 189.460938 140.433594 189.617188 139.824219 189.929688 139.285156 C 190.25 138.734375 190.691406 138.308594 191.253906 138.007812 C 191.824219 137.695312 192.457031 137.539062 193.15625 137.539062 C 193.703125 137.539062 194.203125 137.632812 194.652344 137.820312 C 195.105469 138 195.492188 138.269531 195.804688 138.628906 L 195.164062 139.253906 C 194.636719 138.703125 193.980469 138.425781 193.203125 138.425781 C 192.679688 138.425781 192.207031 138.546875 191.785156 138.785156 C 191.367188 139.015625 191.039062 139.332031 190.800781 139.738281 C 190.574219 140.140625 190.460938 140.601562 190.460938 141.109375 C 190.460938 141.617188 190.574219 142.074219 190.800781 142.480469 C 191.039062 142.882812 191.367188 143.207031 191.785156 143.445312 C 192.207031 143.675781 192.679688 143.789062 193.203125 143.789062 C 193.980469 143.789062 194.636719 143.507812 195.164062 142.945312 L 195.804688 143.585938 C 195.492188 143.941406 195.105469 144.207031 194.652344 144.394531 C 194.191406 144.582031 193.691406 144.675781 193.15625 144.675781 Z M 193.15625 144.675781 " fill-opacity="1" fill-rule="nonzero"/><path fill="#152039" d="M 205.632812 137.617188 C 206.535156 137.617188 207.246094 137.835938 207.765625 138.273438 C 208.285156 138.699219 208.546875 139.292969 208.546875 140.046875 C 208.546875 140.808594 208.285156 141.402344 207.765625 141.839844 C 207.246094 142.269531 206.535156 142.480469 205.632812 142.480469 L 203.902344 142.480469 L 203.902344 144.597656 L 202.90625 144.597656 L 202.90625 137.617188 Z M 205.601562 141.621094 C 206.230469 141.621094 206.714844 141.488281 207.050781 141.214844 C 207.382812 140.949219 207.546875 140.558594 207.546875 140.046875 C 207.546875 139.550781 207.382812 139.167969 207.050781 138.894531 C 206.714844 138.625 206.230469 138.488281 205.601562 138.488281 L 203.902344 138.488281 L 203.902344 141.621094 Z M 205.601562 141.621094 " fill-opacity="1" fill-rule="nonzero"/><path fill="#152039" d="M 216.273438 144.597656 L 214.761719 142.449219 C 214.574219 142.472656 214.425781 142.480469 214.324219 142.480469 L 212.597656 142.480469 L 212.597656 144.597656 L 211.597656 144.597656 L 211.597656 137.617188 L 214.324219 137.617188 C 215.230469 137.617188 215.9375 137.835938 216.460938 138.273438 C 216.980469 138.699219 217.238281 139.292969 217.238281 140.046875 C 217.238281 140.589844 217.101562 141.054688 216.835938 141.433594 C 216.574219 141.808594 216.195312 142.085938 215.695312 142.261719 L 217.347656 144.597656 Z M 214.292969 141.621094 C 214.925781 141.621094 215.410156 141.488281 215.742188 141.214844 C 216.074219 140.949219 216.242188 140.558594 216.242188 140.046875 C 216.242188 139.550781 216.074219 139.167969 215.742188 138.894531 C 215.410156 138.625 214.925781 138.488281 214.292969 138.488281 L 212.597656 138.488281 L 212.597656 141.621094 Z M 214.292969 141.621094 " fill-opacity="1" fill-rule="nonzero"/><path fill="#152039" d="M 223.488281 144.675781 C 222.792969 144.675781 222.15625 144.527344 221.589844 144.222656 C 221.027344 143.914062 220.582031 143.488281 220.265625 142.945312 C 219.941406 142.398438 219.78125 141.785156 219.78125 141.109375 C 219.78125 140.433594 219.941406 139.824219 220.265625 139.285156 C 220.582031 138.734375 221.027344 138.308594 221.589844 138.007812 C 222.15625 137.695312 222.792969 137.539062 223.488281 137.539062 C 224.195312 137.539062 224.832031 137.695312 225.390625 138.007812 C 225.953125 138.308594 226.390625 138.734375 226.714844 139.285156 C 227.035156 139.824219 227.199219 140.433594 227.199219 141.109375 C 227.199219 141.785156 227.035156 142.398438 226.714844 142.945312 C 226.390625 143.488281 225.953125 143.914062 225.390625 144.222656 C 224.832031 144.527344 224.195312 144.675781 223.488281 144.675781 Z M 223.488281 143.789062 C 224.007812 143.789062 224.472656 143.675781 224.878906 143.445312 C 225.28125 143.207031 225.601562 142.882812 225.84375 142.480469 C 226.082031 142.074219 226.203125 141.617188 226.203125 141.109375 C 226.203125 140.601562 226.082031 140.140625 225.84375 139.738281 C 225.601562 139.332031 225.28125 139.015625 224.878906 138.785156 C 224.472656 138.546875 224.007812 138.425781 223.488281 138.425781 C 222.980469 138.425781 222.515625 138.546875 222.101562 138.785156 C 221.6875 139.015625 221.359375 139.332031 221.121094 139.738281 C 220.890625 140.140625 220.777344 140.601562 220.777344 141.109375 C 220.777344 141.617188 220.890625 142.074219 221.121094 142.480469 C 221.359375 142.882812 221.6875 143.207031 222.101562 143.445312 C 222.515625 143.675781 222.980469 143.789062 223.488281 143.789062 Z M 223.488281 143.789062 " fill-opacity="1" fill-rule="nonzero"/><path fill="#152039" d="M 235.058594 141.0625 L 236.011719 141.0625 L 236.011719 143.789062 C 235.667969 144.082031 235.261719 144.300781 234.792969 144.457031 C 234.335938 144.601562 233.859375 144.675781 233.359375 144.675781 C 232.664062 144.675781 232.027344 144.527344 231.460938 144.222656 C 230.898438 143.914062 230.453125 143.488281 230.136719 142.945312 C 229.8125 142.398438 229.652344 141.785156 229.652344 141.109375 C 229.652344 140.433594 229.8125 139.824219 230.136719 139.285156 C 230.453125 138.734375 230.898438 138.308594 231.460938 138.007812 C 232.027344 137.695312 232.675781 137.539062 233.390625 137.539062 C 233.941406 137.539062 234.445312 137.632812 234.902344 137.820312 C 235.359375 138 235.75 138.265625 236.074219 138.613281 L 235.449219 139.238281 C 234.886719 138.699219 234.210938 138.425781 233.421875 138.425781 C 232.894531 138.425781 232.414062 138.542969 231.988281 138.769531 C 231.574219 139 231.246094 139.324219 231.007812 139.738281 C 230.765625 140.140625 230.648438 140.601562 230.648438 141.109375 C 230.648438 141.617188 230.765625 142.074219 231.007812 142.480469 C 231.246094 142.882812 231.574219 143.207031 231.988281 143.445312 C 232.414062 143.675781 232.894531 143.789062 233.421875 143.789062 C 234.046875 143.789062 234.59375 143.640625 235.058594 143.335938 Z M 235.058594 141.0625 " fill-opacity="1" fill-rule="nonzero"/><path fill="#152039" d="M 244.082031 144.597656 L 242.570312 142.449219 C 242.382812 142.472656 242.234375 142.480469 242.132812 142.480469 L 240.402344 142.480469 L 240.402344 144.597656 L 239.40625 144.597656 L 239.40625 137.617188 L 242.132812 137.617188 C 243.035156 137.617188 243.746094 137.835938 244.265625 138.273438 C 244.785156 138.699219 245.046875 139.292969 245.046875 140.046875 C 245.046875 140.589844 244.910156 141.054688 244.640625 141.433594 C 244.378906 141.808594 244.003906 142.085938 243.503906 142.261719 L 245.15625 144.597656 Z M 242.101562 141.621094 C 242.734375 141.621094 243.214844 141.488281 243.550781 141.214844 C 243.882812 140.949219 244.050781 140.558594 244.050781 140.046875 C 244.050781 139.550781 243.882812 139.167969 243.550781 138.894531 C 243.214844 138.625 242.734375 138.488281 242.101562 138.488281 L 240.402344 138.488281 L 240.402344 141.621094 Z M 242.101562 141.621094 " fill-opacity="1" fill-rule="nonzero"/><path fill="#152039" d="M 252.605469 142.851562 L 248.898438 142.851562 L 248.117188 144.597656 L 247.089844 144.597656 L 250.253906 137.617188 L 251.25 137.617188 L 254.414062 144.597656 L 253.371094 144.597656 Z M 252.246094 142.058594 L 250.75 138.628906 L 249.238281 142.058594 Z M 252.246094 142.058594 " fill-opacity="1" fill-rule="nonzero"/><path fill="#152039" d="M 263.425781 144.597656 L 263.410156 139.519531 L 260.886719 143.757812 L 260.433594 143.757812 L 257.910156 139.550781 L 257.910156 144.597656 L 256.941406 144.597656 L 256.941406 137.617188 L 257.769531 137.617188 L 260.683594 142.527344 L 263.550781 137.617188 L 264.359375 137.617188 L 264.375 144.597656 Z M 263.425781 144.597656 " fill-opacity="1" fill-rule="nonzero"/><path fill="#152039" d="M 274.441406 144.597656 L 274.425781 139.519531 L 271.902344 143.757812 L 271.449219 143.757812 L 268.925781 139.550781 L 268.925781 144.597656 L 267.960938 144.597656 L 267.960938 137.617188 L 268.785156 137.617188 L 271.699219 142.527344 L 274.566406 137.617188 L 275.378906 137.617188 L 275.394531 144.597656 Z M 274.441406 144.597656 " fill-opacity="1" fill-rule="nonzero"/><path fill="#152039" d="M 278.976562 137.617188 L 279.972656 137.617188 L 279.972656 144.597656 L 278.976562 144.597656 Z M 278.976562 137.617188 " fill-opacity="1" fill-rule="nonzero"/><path fill="#152039" d="M 289.5625 137.617188 L 289.5625 144.597656 L 288.753906 144.597656 L 284.558594 139.394531 L 284.558594 144.597656 L 283.5625 144.597656 L 283.5625 137.617188 L 284.386719 137.617188 L 288.566406 142.820312 L 288.566406 137.617188 Z M 289.5625 137.617188 " fill-opacity="1" fill-rule="nonzero"/><path fill="#152039" d="M 298 141.0625 L 298.953125 141.0625 L 298.953125 143.789062 C 298.609375 144.082031 298.203125 144.300781 297.734375 144.457031 C 297.277344 144.601562 296.800781 144.675781 296.300781 144.675781 C 295.605469 144.675781 294.96875 144.527344 294.402344 144.222656 C 293.839844 143.914062 293.394531 143.488281 293.078125 142.945312 C 292.753906 142.398438 292.59375 141.785156 292.59375 141.109375 C 292.59375 140.433594 292.753906 139.824219 293.078125 139.285156 C 293.394531 138.734375 293.839844 138.308594 294.402344 138.007812 C 294.96875 137.695312 295.617188 137.539062 296.332031 137.539062 C 296.882812 137.539062 297.386719 137.632812 297.84375 137.820312 C 298.300781 138 298.691406 138.265625 299.011719 138.613281 L 298.390625 139.238281 C 297.828125 138.699219 297.152344 138.425781 296.363281 138.425781 C 295.835938 138.425781 295.355469 138.542969 294.929688 138.769531 C 294.515625 139 294.1875 139.324219 293.949219 139.738281 C 293.707031 140.140625 293.589844 140.601562 293.589844 141.109375 C 293.589844 141.617188 293.707031 142.074219 293.949219 142.480469 C 294.1875 142.882812 294.515625 143.207031 294.929688 143.445312 C 295.355469 143.675781 295.835938 143.789062 296.363281 143.789062 C 296.988281 143.789062 297.53125 143.640625 298 143.335938 Z M 298 141.0625 " fill-opacity="1" fill-rule="nonzero"/></svg>